<svg height="512" viewBox="0 0 512 512" width="512" xmlns="http://www.w3.org/2000/svg"><g><g fill="#57a4ff"><path d="m452 112h-28v24h24v240h-384v-240h120v-24h-124a19.994 19.994 0 0 0 -20 20v268h168l8 32h80l8-32h168v-268a19.994 19.994 0 0 0 -20-20z"/><path d="m328 168h56v128h-56z"/></g><g fill="#004fac"><path d="m496 392h-16v-260a28.031 28.031 0 0 0 -28-28h-20v-48a8 8 0 0 0 -8-8h-240a8 8 0 0 0 -8 8v48h-116a28.031 28.031 0 0 0 -28 28v260h-16a8 8 0 0 0 -8 8v36a28.031 28.031 0 0 0 28 28h440a28.031 28.031 0 0 0 28-28v-36a8 8 0 0 0 -8-8zm-64-40v-208h8v224h-368v-224h104v8.37c-2.64-.24-5.3-.37-8-.37a88 88 0 0 0 0 176c2.7 0 5.36-.13 8-.37v24.37a8 8 0 0 0 8 8h240a8 8 0 0 0 8-8zm-240-288h224v280h-224v-19.33a88.008 88.008 0 0 0 0-169.34zm48 176a72 72 0 1 1 -72-72 72.083 72.083 0 0 1 72 72zm-192-108a12.01 12.01 0 0 1 12-12h116v8h-112a8 8 0 0 0 -8 8v240a8 8 0 0 0 8 8h384a8 8 0 0 0 8-8v-240a8 8 0 0 0 -8-8h-16v-8h20a12.01 12.01 0 0 1 12 12v260h-416zm245.75 276-4 16h-67.5l-4-16zm194.25 28a12.01 12.01 0 0 1 -12 12h-440a12.01 12.01 0 0 1 -12-12v-28h177.75l6.49 25.94a8 8 0 0 0 7.76 6.06h80a8 8 0 0 0 7.76-6.06l6.49-25.94h177.75z"/><path d="m200 256a24.032 24.032 0 0 1 -24 24 8 8 0 0 1 -16 0h-16a8 8 0 0 1 0-16h32a8.011 8.011 0 0 0 8-8c0-4.19-4.29-8-9-8h-15a24 24 0 0 1 0-48 8 8 0 0 1 16 0h16a8 8 0 0 1 0 16h-32a8 8 0 0 0 0 16h15c13.55 0 25 10.99 25 24z"/><path d="m224 96h16a8 8 0 0 0 0-16h-16a8 8 0 0 0 0 16z"/><path d="m264 96h120a8 8 0 0 0 0-16h-120a8 8 0 0 0 0 16z"/><path d="m224 120h16a8 8 0 0 0 0-16h-16a8 8 0 0 0 0 16z"/><path d="m264 120h120a8 8 0 0 0 0-16h-120a8 8 0 0 0 0 16z"/><path d="m224 144h16a8 8 0 0 0 0-16h-16a8 8 0 0 0 0 16z"/><path d="m264 144h120a8 8 0 0 0 0-16h-120a8 8 0 0 0 0 16z"/><path d="m384 160h-56a8 8 0 0 0 -8 8v128a8 8 0 0 0 8 8h56a8 8 0 0 0 8-8v-128a8 8 0 0 0 -8-8zm-8 128h-40v-112h40z"/></g></g></svg>